<svg version="1.1" id="Layer_1" xmlns="http://www.w3.org/2000/svg" xmlns:xlink="http://www.w3.org/1999/xlink" x="0px" y="0px" viewBox="0 0 128 128" style="enable-background:new 0 0 512 512;" xml:space="preserve" width="256" height="256"><path style="fill:#47821C;" d="M0.345 77.823a3.612 3.612 0 0 1 3.956 -2.006c8.367 1.622 17.262 5.774 26.439 12.34 7.197 5.149 14.607 11.804 22.025 19.778l0.175 0.189H27.863a299.466 299.466 0 0 0 -6.982 -7.488c-10.97 -11.365 -19.482 -18.415 -19.566 -18.484a3.614 3.614 0 0 1 -0.97 -4.329z"/><path style="fill:#4E901E;" d="M6.133 50.986a3.613 3.613 0 0 1 4.287 -1.139c7.846 3.328 15.683 9.239 23.292 17.571 5.968 6.534 11.831 14.585 17.427 23.928 3.65 6.093 6.692 11.903 9.068 16.778h-22.139c-5.533 -11.996 -11.659 -22.643 -16.597 -30.551 -8.366 -13.399 -15.224 -22.065 -15.292 -22.151a3.615 3.615 0 0 1 -0.048 -4.436z"/><path style="fill:#5EAC24;" d="M20.144 30.552a3.613 3.613 0 0 1 4.423 -0.342c7.112 4.697 13.745 11.933 19.715 21.508 4.682 7.509 8.987 16.49 12.794 26.694 4.859 13.023 7.629 24.556 8.748 29.712h-21.272c-3.311 -18.817 -9.384 -36.554 -14.15 -48.642 -5.794 -14.695 -10.965 -24.463 -11.016 -24.559a3.613 3.613 0 0 1 0.758 -4.371z"/><path style="fill:#6DC82A;" d="M51.171 108.102c0.001 -0.128 0.007 -0.254 0.021 -0.379 1.237 -21.338 -1.479 -42.78 -3.98 -57.026 -2.728 -15.544 -5.8 -26.134 -5.831 -26.238 -0.463 -1.582 0.177 -3.286 1.554 -4.138 1.377 -0.852 3.14 -0.634 4.281 0.528 5.886 5.996 10.833 14.389 14.704 24.945 3.035 8.279 5.431 17.928 7.12 28.679 2.828 18.003 2.716 32.79 2.705 33.722l-20.574 -0.094z"/><path style="fill:#4E901E;" d="M127.655 77.823a3.612 3.612 0 0 0 -3.956 -2.006c-8.367 1.622 -17.262 5.774 -26.439 12.34 -7.197 5.149 -14.607 11.804 -22.025 19.778l-0.175 0.189h25.076a298.998 298.998 0 0 1 6.982 -7.488c10.97 -11.365 19.482 -18.415 19.566 -18.484a3.614 3.614 0 0 0 0.97 -4.329z"/><path style="fill:#5EAC24;" d="M121.867 50.986a3.613 3.613 0 0 0 -4.287 -1.139c-7.846 3.328 -15.683 9.239 -23.292 17.571 -5.968 6.534 -11.831 14.585 -17.427 23.928 -3.65 6.093 -6.692 11.903 -9.068 16.778h22.139c5.533 -11.996 11.659 -22.643 16.597 -30.551 8.366 -13.399 15.224 -22.065 15.292 -22.151a3.614 3.614 0 0 0 0.048 -4.436z"/><path style="fill:#6DC82A;" d="M107.856 30.552a3.613 3.613 0 0 0 -4.423 -0.342c-7.112 4.697 -13.745 11.933 -19.715 21.508 -4.682 7.509 -8.987 16.49 -12.794 26.694 -4.859 13.023 -7.629 24.556 -8.748 29.712h21.272c3.311 -18.817 9.384 -36.554 14.15 -48.642 5.794 -14.695 10.965 -24.463 11.016 -24.559a3.612 3.612 0 0 0 -0.758 -4.371z"/><path style="fill:#91DC5A;" d="M77.219 108.124c0 -0.128 -0.007 -0.254 -0.019 -0.379 -1.172 -21.343 1.724 -42.773 4.364 -57.008 2.88 -15.531 6.09 -26.107 6.122 -26.211a3.614 3.614 0 0 0 -5.986 -3.636c-6.084 5.969 -11.213 14.339 -15.244 24.878 -3.162 8.265 -5.671 17.903 -7.459 28.646 -2.994 17.99 -2.949 32.777 -2.942 33.709h21.165v-0.001z"/><g><path style="fill:#47821C;" d="M30.041 108.124H12.191c-1.082 0 -1.959 -0.877 -1.959 -1.959s0.877 -1.959 1.959 -1.959h17.85c1.082 0 1.959 0.877 1.959 1.959s-0.877 1.959 -1.959 1.959z"/><path style="fill:#47821C;" d="M5.486 108.124H2.09c-1.082 0 -1.959 -0.877 -1.959 -1.959s0.877 -1.959 1.959 -1.959h3.396c1.082 0 1.959 0.877 1.959 1.959s-0.877 1.959 -1.959 1.959z"/></g><g><path style="fill:#4E901E;" d="M111.108 108.124h-14.454c-1.082 0 -1.959 -0.877 -1.959 -1.959s0.877 -1.959 1.959 -1.959h14.454c1.082 0 1.959 0.877 1.959 1.959s-0.877 1.959 -1.959 1.959z"/><path style="fill:#4E901E;" d="M125.739 108.124h-7.665c-1.082 0 -1.959 -0.877 -1.959 -1.959s0.877 -1.959 1.959 -1.959h7.665c1.082 0 1.959 0.877 1.959 1.959s-0.877 1.959 -1.959 1.959z"/></g><g><path style="fill:#5EAC24;" d="M67.792 100.347a1.959 1.959 0 0 1 -1.958 -1.914c-0.153 -6.64 0.182 -13.746 0.997 -21.12 0.119 -1.075 1.087 -1.849 2.163 -1.732a1.96 1.96 0 0 1 1.732 2.163c-0.796 7.202 -1.123 14.133 -0.974 20.6a1.959 1.959 0 0 1 -1.96 2.005z"/><path style="fill:#5EAC24;" d="M69.942 70.856a1.959 1.959 0 0 1 -1.937 -2.267c0.933 -5.873 1.802 -9.517 1.838 -9.669a1.96 1.96 0 0 1 2.362 -1.448 1.96 1.96 0 0 1 1.448 2.362c-0.008 0.036 -0.872 3.661 -1.778 9.37a1.96 1.96 0 0 1 -1.933 1.652z"/></g></svg>